<svg width="13" height="15" viewBox="0 0 13 15" fill="none" xmlns="http://www.w3.org/2000/svg" >
<path d="M4.15625 2.67627H8.09375V1.58252C8.09375 1.22705 8.36719 0.92627 8.75 0.92627C9.10547 0.92627 9.40625 1.22705 9.40625 1.58252V2.67627H10.5C11.457 2.67627 12.25 3.46924 12.25 4.42627V13.1763C12.25 14.1606 11.457 14.9263 10.5 14.9263H1.75C0.765625 14.9263 0 14.1606 0 13.1763V4.42627C0 3.46924 0.765625 2.67627 1.75 2.67627H2.84375V1.58252C2.84375 1.22705 3.11719 0.92627 3.5 0.92627C3.85547 0.92627 4.15625 1.22705 4.15625 1.58252V2.67627ZM1.3125 13.1763C1.3125 13.4224 1.50391 13.6138 1.75 13.6138H10.5C10.7188 13.6138 10.9375 13.4224 10.9375 13.1763V6.17627H1.3125V13.1763Z" fill="#667085"/>
</svg>
