<svg width="19" height="18" viewBox="0 0 19 18" fill="none" xmlns="http://www.w3.org/2000/svg">
<path d="M1.44727 6.68555L2.74609 2.97461C3.26562 1.52734 4.60156 0.5625 6.12305 0.5625H12.8398C14.3613 0.5625 15.6973 1.52734 16.2168 2.97461L17.5156 6.68555C18.3691 7.05664 19 7.91016 19 8.875V16C19 16.668 18.4434 17.1875 17.8125 17.1875H16.625C15.957 17.1875 15.4375 16.668 15.4375 16V14.2188H3.5625V16C3.5625 16.668 3.00586 17.1875 2.375 17.1875H1.1875C0.519531 17.1875 0 16.668 0 16V8.875C0 7.91016 0.59375 7.05664 1.44727 6.68555ZM4.04492 6.5H14.918L13.9531 3.75391C13.8047 3.27148 13.3594 2.9375 12.8398 2.9375H6.12305C5.60352 2.9375 5.1582 3.27148 5.00977 3.75391L4.04492 6.5ZM3.5625 8.875C2.89453 8.875 2.375 9.43164 2.375 10.0625C2.375 10.7305 2.89453 11.25 3.5625 11.25C4.19336 11.25 4.75 10.7305 4.75 10.0625C4.75 9.43164 4.19336 8.875 3.5625 8.875ZM15.4375 11.25C16.0684 11.25 16.625 10.7305 16.625 10.0625C16.625 9.43164 16.0684 8.875 15.4375 8.875C14.7695 8.875 14.25 9.43164 14.25 10.0625C14.25 10.7305 14.7695 11.25 15.4375 11.25Z" fill="#4AD594"/>
</svg>
