<svg width="11" height="15" viewBox="0 0 11 15" fill="none" xmlns="http://www.w3.org/2000/svg">
<path d="M5.46875 10.9888C5.82422 10.9888 6.125 11.2896 6.125 11.645C6.125 12.0278 5.82422 12.3013 5.46875 12.3013C3.88281 12.3013 2.625 11.0435 2.625 9.45752C2.625 9.10205 2.89844 8.80127 3.28125 8.80127C3.63672 8.80127 3.9375 9.10205 3.9375 9.45752C3.9375 10.3052 4.62109 10.9888 5.46875 10.9888ZM10.0625 9.67627C10.0625 12.356 7.90234 14.4888 5.25 14.4888C2.57031 14.4888 0.4375 12.356 0.4375 9.67627C0.4375 7.65283 3.22656 3.38721 4.53906 1.47314C4.89453 0.980957 5.57812 0.980957 5.93359 1.47314C7.24609 3.38721 10.0625 7.65283 10.0625 9.67627ZM8.36719 8.30908C8.12109 7.65283 7.76562 6.91455 7.32812 6.17627C6.64453 4.9458 5.85156 3.71533 5.25 2.78564C4.62109 3.71533 3.82812 4.9458 3.14453 6.17627C2.70703 6.91455 2.35156 7.65283 2.10547 8.30908C1.83203 8.96533 1.75 9.43018 1.75 9.67627C1.75 11.6177 3.30859 13.1763 5.25 13.1763C7.16406 13.1763 8.75 11.6177 8.75 9.67627C8.75 9.43018 8.64062 8.96533 8.36719 8.30908Z" fill="#222222"/>
</svg>
