<svg width="14" height="15" viewBox="0 0 14 15" fill="none" xmlns="http://www.w3.org/2000/svg">
<path d="M2.625 0.92627H7C7.95703 0.92627 8.75 1.71924 8.75 2.67627V7.92627H8.96875C10.2812 7.92627 11.375 9.02002 11.375 10.3325V11.2075C11.375 11.5903 11.6484 11.8638 12.0312 11.8638C12.3867 11.8638 12.6875 11.5903 12.6875 11.2075V6.99658C11.9219 6.80518 11.375 6.12158 11.375 5.30127V3.60596L10.4727 2.70361C10.1992 2.45752 10.1992 2.04736 10.4727 1.80127C10.7188 1.52783 11.1289 1.52783 11.375 1.80127L13.3984 3.79736C13.7812 4.18018 14 4.67236 14 5.19189V11.2075C14 12.3013 13.0977 13.1763 12.0312 13.1763C10.9375 13.1763 10.0625 12.3013 10.0625 11.2075V10.3325C10.0625 9.73096 9.57031 9.23877 8.96875 9.23877H8.75V13.6138H8.96875C9.32422 13.6138 9.625 13.9146 9.625 14.27C9.625 14.6528 9.32422 14.9263 8.96875 14.9263H0.65625C0.273438 14.9263 0 14.6528 0 14.27C0 13.9146 0.273438 13.6138 0.65625 13.6138H0.875V2.67627C0.875 1.71924 1.64062 0.92627 2.625 0.92627ZM7 2.23877H2.625C2.37891 2.23877 2.1875 2.45752 2.1875 2.67627V6.17627H7.4375V2.67627C7.4375 2.45752 7.21875 2.23877 7 2.23877ZM7.4375 7.48877H2.1875V13.6138H7.4375V7.48877Z" fill="#222222"/>
</svg>
