<svg width="16" height="17" viewBox="0 0 16 17" fill="none" xmlns="http://www.w3.org/2000/svg">
<path d="M9.75 11.5C9.75 12.4688 8.9375 13.25 8 13.25C7.03125 13.25 6.25 12.4688 6.25 11.5C6.25 10.8125 6.65625 10.2188 7.21875 9.9375V4.25C7.21875 3.84375 7.5625 3.5 7.96875 3.5C8.40625 3.5 8.75 3.84375 8.75 4.25V9.9375C9.3125 10.2188 9.75 10.8125 9.75 11.5ZM4 5.5C4 4.96875 4.4375 4.5 5 4.5C5.53125 4.5 6 4.96875 6 5.5C6 6.0625 5.53125 6.5 5 6.5C4.4375 6.5 4 6.0625 4 5.5ZM4.5 8.5C4.5 9.0625 4.03125 9.5 3.5 9.5C2.9375 9.5 2.5 9.0625 2.5 8.5C2.5 7.96875 2.9375 7.5 3.5 7.5C4.03125 7.5 4.5 7.96875 4.5 8.5ZM11.5 8.5C11.5 7.96875 11.9375 7.5 12.5 7.5C13.0312 7.5 13.5 7.96875 13.5 8.5C13.5 9.0625 13.0312 9.5 12.5 9.5C11.9375 9.5 11.5 9.0625 11.5 8.5ZM12 5.5C12 6.0625 11.5312 6.5 11 6.5C10.4375 6.5 10 6.0625 10 5.5C10 4.96875 10.4375 4.5 11 4.5C11.5312 4.5 12 4.96875 12 5.5ZM0 8.5C0 4.09375 3.5625 0.5 8 0.5C12.4062 0.5 16 4.09375 16 8.5C16 12.9375 12.4062 16.5 8 16.5C3.5625 16.5 0 12.9375 0 8.5ZM8 15C11.5625 15 14.5 12.0938 14.5 8.5C14.5 4.9375 11.5625 2 8 2C4.40625 2 1.5 4.9375 1.5 8.5C1.5 12.0938 4.40625 15 8 15Z" fill="black"/>
</svg>
