<svg width="16" height="16" viewBox="0 0 16 16" fill="none" xmlns="http://www.w3.org/2000/svg">
<path d="M8 0C12.4688 0 15.8438 3.75 16 8V12.5C16 14.0312 14.75 15.25 13.25 15.25H9.78125C9.53125 15.7188 9.03125 16 8.5 16H7.46875C6.65625 16 6 15.3438 6 14.5C6 13.6875 6.65625 13 7.5 13H8.5C9.03125 13 9.53125 13.3125 9.78125 13.75H13.25C13.9375 13.75 14.5 13.2188 14.5 12.5V11.875C14.25 11.9688 13.9688 12 13.6875 12H13.125C12.5 12 12 11.5 12 10.8438V6.6875C12 6.03125 12.5 5.5 13.125 5.5H13.6875C13.8125 5.5 13.9062 5.53125 14 5.53125C13.0312 3.1875 10.6875 1.53125 8 1.53125C5.28125 1.53125 2.9375 3.1875 1.96875 5.5625C2.0625 5.53125 2.15625 5.5 2.28125 5.5H2.84375C3.46875 5.5 4 6.03125 4 6.6875V10.8438C4 11.5 3.46875 12 2.84375 12H2.28125C1 12 0 10.9688 0 9.6875V8C0.125 3.75 3.5 0 8 0ZM2.28125 7C1.84375 7 1.53125 7.34375 1.5 7.78125C1.5 7.875 1.5 7.9375 1.5 8V9.6875C1.5 10.125 1.84375 10.5 2.28125 10.5H2.5V7H2.28125ZM13.6875 10.5C14.125 10.5 14.5 10.125 14.5 9.6875V8C14.5 7.9375 14.4688 7.875 14.4688 7.78125C14.4375 7.375 14.125 7 13.6875 7H13.5V10.5H13.6875Z" fill="#222222"/>
</svg>
