<svg  width="28px" height="28px" viewBox="0 0 24 24" fill="none" xmlns="http://www.w3.org/2000/svg">
<path d="M23.1484 9.48438C23.5391 9.83594 23.5781 10.4219 23.2656 10.8125C22.9141 11.2031 22.3281 11.2422 21.9375 10.9297L21 10.1094V17.375C21 19.1328 19.5938 20.5 17.875 20.5H6.625C4.86719 20.5 3.5 19.1328 3.5 17.375V10.1094L2.52344 10.9297C2.13281 11.2422 1.54688 11.2031 1.19531 10.8125C0.882812 10.4219 0.921875 9.83594 1.3125 9.48438L11.625 0.734375C11.9766 0.460938 12.4844 0.460938 12.8359 0.734375L23.1484 9.48438ZM6.625 18.625H8.5V12.6875C8.5 11.8281 9.16406 11.125 10.0625 11.125H14.4375C15.2969 11.125 16 11.8281 16 12.6875V18.625H17.875C18.5391 18.625 19.125 18.0781 19.125 17.375V8.50781L12.25 2.6875L5.375 8.50781V17.375C5.375 18.0781 5.92188 18.625 6.625 18.625ZM10.375 18.625H14.125V13H10.375V18.625Z" fill="black"/>
</svg>
