<svg width="15" height="21" viewBox="0 0 15 21" fill="none" xmlns="http://www.w3.org/2000/svg">
<path d="M10.625 8C10.625 9.75781 9.21875 11.125 7.5 11.125C5.74219 11.125 4.375 9.75781 4.375 8C4.375 6.28125 5.74219 4.875 7.5 4.875C9.21875 4.875 10.625 6.28125 10.625 8ZM7.5 6.75C6.79688 6.75 6.25 7.33594 6.25 8C6.25 8.70312 6.79688 9.25 7.5 9.25C8.16406 9.25 8.75 8.70312 8.75 8C8.75 7.33594 8.16406 6.75 7.5 6.75ZM15 8C15 11.4375 10.4297 17.4922 8.39844 20.0312C7.92969 20.6172 7.03125 20.6172 6.5625 20.0312C4.53125 17.4922 0 11.4375 0 8C0 3.85938 3.32031 0.5 7.5 0.5C11.6406 0.5 15 3.85938 15 8ZM7.5 2.375C4.375 2.375 1.875 4.91406 1.875 8C1.875 8.50781 2.03125 9.25 2.46094 10.2656C2.85156 11.2031 3.4375 12.2969 4.10156 13.3906C5.23438 15.1875 6.52344 16.9062 7.5 18.1562C8.4375 16.9062 9.72656 15.1875 10.8594 13.3906C11.5234 12.2969 12.1094 11.2031 12.5 10.2656C12.9297 9.25 13.125 8.50781 13.125 8C13.125 4.91406 10.5859 2.375 7.5 2.375Z" fill="black"/>
</svg>
