<svg width="16" height="14" viewBox="0 0 16 14" fill="none" xmlns="http://www.w3.org/2000/svg">
<path d="M5.25 12.5C5.65625 12.5 6 12.8438 6 13.25C6 13.6875 5.65625 14 5.25 14H3C1.3125 14 0 12.6875 0 11V3C0 1.34375 1.3125 0 3 0H5.25C5.65625 0 6 0.34375 6 0.75C6 1.1875 5.65625 1.5 5.25 1.5H3C2.15625 1.5 1.5 2.1875 1.5 3V11C1.5 11.8438 2.15625 12.5 3 12.5H5.25ZM15.7188 6.46875C15.9062 6.625 16 6.8125 16 7.03125C16 7.25 15.9062 7.4375 15.7188 7.59375L10.9688 11.75C10.7812 11.9375 10.5312 12.0312 10.2812 12.0312C10.125 12.0312 9.96875 12 9.84375 11.9375C9.46875 11.75 9.25 11.4062 9.25 11V9.28125H5.5C4.78125 9.28125 4.25 8.71875 4.25 8.03125V6.03125C4.25 5.3125 4.78125 4.78125 5.5 4.78125H9.25V3.03125C9.25 2.625 9.46875 2.28125 9.84375 2.09375C10.2188 1.9375 10.6562 2 10.9688 2.28125L15.7188 6.46875ZM10.75 9.9375L14.0938 7L10.75 4.0625V6.25H5.75V7.75H10.75V9.9375Z" fill="#FF1400"/>
</svg>
