<svg width="18" height="27" viewBox="0 0 18 27" fill="none" xmlns="http://www.w3.org/2000/svg">
<path d="M10.625 18.375C14.4141 18.375 17.5 21.4609 17.5 25.25C17.5 25.9531 16.9141 26.5 16.25 26.5H1.25C0.546875 26.5 0 25.9531 0 25.25C0 21.4609 3.04688 18.375 6.875 18.375H10.625ZM1.875 24.625H15.5859C15.2734 22.1641 13.1641 20.25 10.625 20.25H6.875C4.29688 20.25 2.1875 22.1641 1.875 24.625ZM8.75 16.5C5.97656 16.5 3.75 14.2734 3.75 11.5C3.75 8.76562 5.97656 6.5 8.75 6.5C11.4844 6.5 13.75 8.76562 13.75 11.5C13.75 14.2734 11.4844 16.5 8.75 16.5ZM8.75 8.375C6.99219 8.375 5.625 9.78125 5.625 11.5C5.625 13.2578 6.99219 14.625 8.75 14.625C10.4688 14.625 11.875 13.2578 11.875 11.5C11.875 9.78125 10.4688 8.375 8.75 8.375Z" fill="black"/>
</svg>
