<svg width="18" height="19" viewBox="0 0 18 19" fill="none" xmlns="http://www.w3.org/2000/svg">
<path d="M5.625 0.75C6.64062 0.75 7.5 1.60938 7.5 2.625V6.375C7.5 7.42969 6.64062 8.25 5.625 8.25H1.875C0.820312 8.25 0 7.42969 0 6.375V2.625C0 1.60938 0.820312 0.75 1.875 0.75H5.625ZM5 3.25H2.5V5.75H5V3.25ZM5.625 10.75C6.64062 10.75 7.5 11.6094 7.5 12.625V16.375C7.5 17.4297 6.64062 18.25 5.625 18.25H1.875C0.820312 18.25 0 17.4297 0 16.375V12.625C0 11.6094 0.820312 10.75 1.875 10.75H5.625ZM5 13.25H2.5V15.75H5V13.25ZM10 2.625C10 1.60938 10.8203 0.75 11.875 0.75H15.625C16.6406 0.75 17.5 1.60938 17.5 2.625V6.375C17.5 7.42969 16.6406 8.25 15.625 8.25H11.875C10.8203 8.25 10 7.42969 10 6.375V2.625ZM12.5 5.75H15V3.25H12.5V5.75ZM13.75 17H15V18.25H13.75V17ZM17.5 18.25H16.25V17H17.5V18.25ZM16.25 10.75H17.5V15.75H13.75V14.5H12.5V18.25H10V10.75H13.75V12H16.25V10.75Z" fill="#4AD594"/>
</svg>
