<svg width="18" height="19" viewBox="0 0 18 19" fill="none" xmlns="http://www.w3.org/2000/svg">
<path d="M4.0625 3.5625C4.375 3.5625 4.6875 3.875 4.6875 4.1875V4.8125C4.6875 5.16406 4.375 5.4375 4.0625 5.4375H3.4375C3.08594 5.4375 2.8125 5.16406 2.8125 4.8125V4.1875C2.8125 3.875 3.08594 3.5625 3.4375 3.5625H4.0625ZM0 2.625C0 1.60938 0.820312 0.75 1.875 0.75H5.625C6.64062 0.75 7.5 1.60938 7.5 2.625V6.375C7.5 7.42969 6.64062 8.25 5.625 8.25H1.875C0.820312 8.25 0 7.42969 0 6.375V2.625ZM1.875 6.375H5.625V2.625H1.875V6.375ZM2.8125 14.1875C2.8125 13.875 3.08594 13.5625 3.4375 13.5625H4.0625C4.375 13.5625 4.6875 13.875 4.6875 14.1875V14.8125C4.6875 15.1641 4.375 15.4375 4.0625 15.4375H3.4375C3.08594 15.4375 2.8125 15.1641 2.8125 14.8125V14.1875ZM0 12.625C0 11.6094 0.820312 10.75 1.875 10.75H5.625C6.64062 10.75 7.5 11.6094 7.5 12.625V16.375C7.5 17.4297 6.64062 18.25 5.625 18.25H1.875C0.820312 18.25 0 17.4297 0 16.375V12.625ZM1.875 16.375H5.625V12.625H1.875V16.375ZM14.0625 3.5625C14.375 3.5625 14.6875 3.875 14.6875 4.1875V4.8125C14.6875 5.16406 14.375 5.4375 14.0625 5.4375H13.4375C13.0859 5.4375 12.8125 5.16406 12.8125 4.8125V4.1875C12.8125 3.875 13.0859 3.5625 13.4375 3.5625H14.0625ZM15.625 0.75C16.6406 0.75 17.5 1.60938 17.5 2.625V6.375C17.5 7.42969 16.6406 8.25 15.625 8.25H11.875C10.8203 8.25 10 7.42969 10 6.375V2.625C10 1.60938 10.8203 0.75 11.875 0.75H15.625ZM15.625 2.625H11.875V6.375H15.625V2.625ZM15 18.25H13.75V17H15V18.25ZM16.25 17H17.5V18.25H16.25V17ZM17.5 15.75H13.75V14.5H12.5V18.25H10V10.75H13.75V12H16.25V10.75H17.5V15.75Z" fill="black"/>
</svg>
