<?xml version="1.0" standalone="no"?>
<!DOCTYPE svg PUBLIC "-//W3C//DTD SVG 20010904//EN"
 "http://www.w3.org/TR/2001/REC-SVG-20010904/DTD/svg10.dtd">
<svg version="1.0" xmlns="http://www.w3.org/2000/svg"
 width="200" height="200" viewBox="0 0 500.000000 500.000000"
 preserveAspectRatio="xMidYMid meet">

<g transform="translate(0.000000,500.000000) scale(0.100000,-0.100000)"
fill="#B00814" stroke="none">
<path d="M1364 3933 c-17 -17 -14 -51 12 -154 32 -128 73 -194 273 -439 190
-233 238 -281 252 -258 4 7 5 16 3 20 -3 5 0 7 7 6 20 -5 165 180 206 262 37
72 38 77 38 180 0 88 -3 111 -21 140 -27 47 -60 58 -108 35 -50 -24 -84 -77
-101 -161 -14 -65 -14 -66 -9 -15 14 141 95 218 201 192 107 -27 183 -88 233
-186 81 -159 36 -373 -112 -531 -33 -35 -64 -64 -69 -64 -4 0 15 21 42 47 47
43 96 117 91 136 -1 4 2 7 7 7 14 0 24 58 23 133 -1 93 -32 168 -81 195 -45
26 -60 16 -87 -53 -51 -134 -152 -271 -341 -459 -93 -92 -391 -434 -430 -492
-66 -99 -66 -102 -64 -574 1 -248 6 -429 12 -434 6 -6 9 -5 9 4 0 7 2 11 5 8
3 -3 1 -18 -5 -33 -15 -40 -15 -144 0 -190 21 -63 75 -121 146 -156 57 -28 70
-31 136 -28 127 7 159 29 421 288 233 230 261 261 237 269 -7 3 1 11 19 18 17
7 31 18 31 24 0 6 -5 8 -12 4 -7 -5 -8 -3 -4 5 5 7 10 10 13 7 10 -10 47 46
54 83 l7 36 1 -42 c1 -49 7 -52 45 -22 27 21 46 18 46 -7 0 -21 62 -112 182
-266 139 -180 168 -210 267 -276 120 -80 223 -114 365 -120 135 -5 206 9 247
49 27 26 28 31 15 51 -7 13 -16 35 -20 49 -3 15 -22 51 -42 80 -20 30 -43 68
-51 84 -9 17 -29 45 -44 63 -16 18 -29 37 -29 43 0 6 -9 23 -20 37 -23 30 -97
143 -120 183 -8 15 -31 53 -50 85 -19 33 -34 63 -32 67 1 5 -1 6 -6 3 -8 -5
-34 36 -37 59 0 6 -7 9 -14 7 -7 -1 -11 3 -9 10 2 6 -35 66 -84 132 -48 67
-88 123 -88 126 0 3 37 43 82 90 136 143 271 308 259 318 -5 4 11 87 22 106
20 40 32 317 17 391 -25 117 -63 231 -90 275 -6 8 -14 25 -20 37 -26 61 -114
177 -195 258 -79 80 -168 145 -197 145 -5 0 -16 7 -24 15 -9 8 -27 18 -42 21
-15 3 -49 14 -77 24 -27 11 -63 21 -80 24 -16 2 -43 9 -60 16 -30 12 -131 15
-828 24 -267 3 -310 2 -323 -11z m543 -590 c-3 -10 -5 -4 -5 12 0 17 2 24 5
18 2 -7 2 -21 0 -30z m0 -215 c-3 -8 -6 -5 -6 6 -1 11 2 17 5 13 3 -3 4 -12 1
-19z m243 -191 c0 -2 -10 -12 -22 -23 l-23 -19 19 23 c18 21 26 27 26 19z
m-67 -71 c-10 -13 -20 -22 -22 -20 -4 4 29 44 36 44 2 0 -4 -11 -14 -24z m7
-131 c41 -43 80 -50 273 -48 197 3 213 -1 261 -57 44 -53 28 -156 -29 -194
-23 -15 -25 -13 -99 68 -42 46 -76 87 -76 91 0 11 -28 35 -40 35 -6 0 -9 4 -6
8 3 4 -42 13 -99 20 -148 16 -214 56 -220 134 l-4 43 8 -38 c4 -20 18 -48 31
-62z m535 -375 c38 -40 45 -111 15 -158 -19 -31 -85 -70 -98 -58 -3 3 0 6 6 6
16 0 15 15 -1 32 -7 7 -26 39 -41 70 -38 79 -84 118 -139 119 -33 0 -38 2 -22
9 11 5 72 9 136 9 115 1 115 1 144 -29z m-55 -272 c38 -62 16 -164 -41 -193
-32 -17 -75 -21 -49 -5 8 5 11 12 7 16 -4 4 0 15 9 25 12 13 12 19 3 25 -8 4
-10 3 -5 -4 4 -7 2 -12 -4 -12 -9 0 -5 46 6 58 7 9 -22 69 -40 82 -11 8 -45
20 -76 26 -54 12 -54 12 58 13 l112 1 20 -32z m-113 -214 c-3 -3 -12 -4 -19
-1 -8 3 -5 6 6 6 11 1 17 -2 13 -5z"/>
</g>
</svg>
