<svg width="32" height="32" viewBox="0 0 32 32" fill="none" xmlns="http://www.w3.org/2000/svg">
<circle cx="16" cy="16" r="15" fill="white" stroke="#F2F2F2" stroke-width="2"/>
<path d="M12.9375 16.625C12.9375 14.957 14.3047 13.5625 16 13.5625C17.668 13.5625 19.0625 14.957 19.0625 16.625C19.0625 18.3203 17.668 19.6875 16 19.6875C14.3047 19.6875 12.9375 18.3203 12.9375 16.625ZM16 14.875C15.0156 14.875 14.25 15.668 14.25 16.625C14.25 17.6094 15.0156 18.375 16 18.375C16.957 18.375 17.75 17.6094 17.75 16.625C17.75 15.668 16.957 14.875 16 14.875ZM18.8984 10.5273L19.1992 11.375H21.25C22.207 11.375 23 12.168 23 13.125V20.125C23 21.1094 22.207 21.875 21.25 21.875H10.75C9.76562 21.875 9 21.1094 9 20.125V13.125C9 12.168 9.76562 11.375 10.75 11.375H12.7734L13.0742 10.5273C13.2383 10.0078 13.7305 9.625 14.3047 9.625H17.668C18.2422 9.625 18.7344 10.0078 18.8984 10.5273ZM10.75 12.6875C10.5039 12.6875 10.3125 12.9062 10.3125 13.125V20.125C10.3125 20.3711 10.5039 20.5625 10.75 20.5625H21.25C21.4688 20.5625 21.6875 20.3711 21.6875 20.125V13.125C21.6875 12.9062 21.4688 12.6875 21.25 12.6875H18.2422L17.668 10.9375H14.3047L13.7305 12.6875H10.75Z" fill="black"/>
</svg>
