<svg width="38" height="38" viewBox="0 0 38 38" fill="none" xmlns="http://www.w3.org/2000/svg">
<rect width="38" height="38" rx="19" fill="#F9F9F9"/>
<path d="M10 14.75C10 13.5195 10.9844 12.5 12.25 12.5H25.75C26.9805 12.5 28 13.5195 28 14.75V23.75C28 25.0156 26.9805 26 25.75 26H12.25C10.9844 26 10 25.0156 10 23.75V14.75ZM11.6875 14.75V15.5586L17.7344 20.5156C18.4727 21.1133 19.4922 21.1133 20.2305 20.5156L26.3125 15.5586V14.75C26.3125 14.4688 26.0312 14.1875 25.75 14.1875H12.25C11.9336 14.1875 11.6875 14.4688 11.6875 14.75ZM11.6875 17.7383V23.75C11.6875 24.0664 11.9336 24.3125 12.25 24.3125H25.75C26.0312 24.3125 26.3125 24.0664 26.3125 23.75V17.7383L21.3203 21.8164C19.9492 22.9414 18.0156 22.9414 16.6445 21.8164L11.6875 17.7383Z" fill="#222222"/>
</svg>
