<svg width="38" height="38" viewBox="0 0 38 38" fill="none" xmlns="http://www.w3.org/2000/svg">
<rect width="38" height="38" rx="19" fill="#F9F9F9"/>
<path d="M26.875 21.5352C27.6836 21.8867 28.1406 22.7656 27.8945 23.6445L27.1562 26.8438C27.0156 27.6875 26.2773 28.25 25.3984 28.25C16.8906 28.25 10 21.3594 10 12.8516C10 11.9727 10.5625 11.2344 11.4062 11.0586L14.6055 10.3203C15.4844 10.1094 16.3633 10.5664 16.7148 11.375L18.2266 14.8906C18.543 15.6289 18.2969 16.5078 17.6992 17.0352L16.5039 17.9844C17.418 19.5312 18.7188 20.832 20.3008 21.7461L21.25 20.5859C21.7773 19.9531 22.6562 19.707 23.4297 20.0586L26.875 21.5352ZM26.2773 23.2578C26.3125 23.1875 26.2773 23.1172 26.207 23.0469L22.7617 21.5703C22.6914 21.5352 22.6211 21.5703 22.5859 21.6055L21.1797 23.3281C20.9336 23.6445 20.4766 23.7148 20.125 23.5391C17.7695 22.3789 15.8359 20.4453 14.6758 18.0898C14.5 17.7383 14.6055 17.3164 14.8867 17.0703L16.6094 15.6641C16.6797 15.6289 16.6797 15.5586 16.6445 15.4883L15.168 12.043C15.1328 12.0078 15.0977 11.9375 15.0273 11.9375L14.9922 11.9727L11.793 12.7109C11.7227 12.7109 11.6523 12.7812 11.6523 12.8516C11.6523 20.4102 17.8398 26.5625 25.3984 26.5625C25.4688 26.5625 25.5391 26.4922 25.5391 26.457L26.2773 23.2578Z" fill="#222222"/>
</svg>
