<svg width="89" height="89" viewBox="0 0 89 89" fill="none" xmlns="http://www.w3.org/2000/svg">
<rect x="3.25" y="3" width="82.5" height="82.5" rx="41.25" fill="#F1FBF6"/>
<rect x="3.25" y="3" width="82.5" height="82.5" rx="41.25" stroke="white" stroke-width="6"/>
<path d="M33.1135 40.1141C34.2846 40.1141 35.318 41.1474 35.318 42.3186V57.6122C35.318 58.7834 34.2846 59.7478 33.1135 59.7478H28.7045C27.4645 59.7478 26.5 58.7834 26.5 57.6122V42.2497C26.5 41.0785 27.4645 40.1141 28.7045 40.1141H33.1135ZM61.7719 42.5252C61.7719 44.1786 60.8763 45.5564 59.6363 46.3831C59.7051 46.7964 59.774 47.1409 59.774 47.4853C59.774 49.0698 58.9474 50.4476 57.7762 51.2743C57.7762 51.481 57.7762 51.6876 57.7762 51.8943C57.7762 53.4788 57.0184 54.8566 55.7784 55.6833C55.6406 58.0945 53.6428 59.9545 51.2316 59.9545H47.5804C45.1004 59.9545 42.6892 59.1967 40.6914 57.6811L38.1425 55.8211C37.7291 55.4766 37.4536 54.9944 37.4536 54.4433C37.4536 53.6166 38.2114 52.7899 39.1758 52.7899C39.5203 52.7899 39.8647 52.9277 40.1403 53.1343L42.6892 55.0633C44.067 56.0966 45.7893 56.7166 47.5804 56.7166H51.2316C51.9205 56.7166 52.5406 56.0966 52.5406 55.4077C52.5406 55.1322 52.4028 55.0633 52.4028 54.7188C52.4028 52.8588 54.4695 53.4788 54.4695 51.8943C54.4695 51.2743 54.0561 51.1365 54.0561 50.3787C54.0561 48.312 56.4673 49.2076 56.4673 47.4853C56.4673 46.5898 55.6406 46.5898 55.6406 45.4875C55.6406 44.6608 56.3295 43.903 57.2251 43.8341C57.914 43.8341 58.4651 43.2141 58.4651 42.5252C58.4651 41.8363 57.8451 41.2852 57.0873 41.2163H47.6493C46.7538 41.2163 45.996 40.5963 45.996 39.6318C45.996 39.3563 46.0649 39.0807 46.2026 38.8052C47.4427 36.6007 47.9938 34.3962 47.9938 33.845C47.9938 33.2939 47.5804 32.4672 46.4093 32.4672C44.1359 32.4672 45.4448 36.6696 40.1403 40.8719C39.8647 41.1474 39.5203 41.2163 39.1758 41.2163C38.2114 41.2163 37.5225 40.4585 37.5225 39.5629C37.5225 37.7029 39.4514 38.7363 41.6559 33.1561C42.3448 31.365 43.2404 29.1605 46.4093 29.1605C49.4405 29.1605 51.3005 31.5028 51.3005 33.845C51.3005 34.7406 50.8872 36.2562 50.2672 37.9785H57.1562C59.6363 37.9785 61.7719 40.0452 61.7719 42.5252Z" fill="#4AD594"/>
</svg>
