<svg width="38" height="38" viewBox="0 0 38 38" fill="none" xmlns="http://www.w3.org/2000/svg">
<rect width="38" height="38" rx="19" fill="#F9F9F9"/>
<path d="M24.4844 13.6953C25.9609 15.1719 26.875 17.1055 26.875 19.2148C26.875 23.5039 23.2891 27.0195 18.9648 27.0195C17.6641 27.0195 16.3984 26.668 15.2383 26.0703L11.125 27.125L12.2148 23.082C11.5469 21.9219 11.1602 20.5859 11.1602 19.1797C11.1602 14.8906 14.6758 11.375 18.9648 11.375C21.0742 11.375 23.043 12.2188 24.4844 13.6953ZM18.9648 25.6836C22.5508 25.6836 25.5391 22.7656 25.5391 19.2148C25.5391 17.457 24.8008 15.8398 23.5703 14.6094C22.3398 13.3789 20.7227 12.7109 19 12.7109C15.4141 12.7109 12.4961 15.6289 12.4961 19.1797C12.4961 20.4102 12.8477 21.6055 13.4805 22.6602L13.6562 22.9062L12.9883 25.2969L15.4492 24.6289L15.6602 24.7695C16.6797 25.3672 17.8047 25.6836 18.9648 25.6836ZM22.5508 20.832C22.7266 20.9375 22.8672 20.9727 22.9023 21.0781C22.9727 21.1484 22.9727 21.5352 22.7969 21.9922C22.6211 22.4492 21.8477 22.8711 21.4961 22.9062C20.8633 23.0117 20.3711 22.9766 19.1406 22.4141C17.1719 21.5703 15.9062 19.6016 15.8008 19.4961C15.6953 19.3555 15.0273 18.4414 15.0273 17.457C15.0273 16.5078 15.5195 16.0508 15.6953 15.8398C15.8711 15.6289 16.082 15.5938 16.2227 15.5938C16.3281 15.5938 16.4688 15.5938 16.5742 15.5938C16.7148 15.5938 16.8555 15.5586 17.0312 15.9453C17.1719 16.332 17.5938 17.2812 17.6289 17.3867C17.6641 17.4922 17.6992 17.5977 17.6289 17.7383C17.2773 18.4766 16.8555 18.4414 17.0664 18.793C17.8398 20.0938 18.5781 20.5508 19.7383 21.1133C19.9141 21.2188 20.0195 21.1836 20.1602 21.0781C20.2656 20.9375 20.6523 20.4805 20.7578 20.3047C20.8984 20.0938 21.0391 20.1289 21.2148 20.1992C21.3906 20.2695 22.3398 20.7266 22.5508 20.832Z" fill="#4AD594"/>
</svg>
